<svg version="1.1" id="Layer_1" xmlns="http://www.w3.org/2000/svg" xmlns:xlink="http://www.w3.org/1999/xlink" x="0px" y="0px"
	 width="100%" viewBox="0 0 800 600" enable-background="new 0 0 800 600" xml:space="preserve">
<path fill="#FF5D53" opacity="1.000000" stroke="none" 
	d="
M408.000000,601.000000 
	C272.000000,601.000000 136.500000,601.000000 1.000000,601.000000 
	C1.000000,401.000000 1.000000,201.000000 1.000000,1.000000 
	C267.666656,1.000000 534.333313,1.000000 801.000000,1.000000 
	C801.000000,201.000000 801.000000,401.000000 801.000000,601.000000 
	C670.166687,601.000000 539.333313,601.000000 408.000000,601.000000 
M270.060150,202.035141 
	C232.650116,202.024017 195.240082,202.003998 157.830048,202.010864 
	C151.830521,202.011978 151.057327,202.874115 150.999863,209.050537 
	C150.956589,213.702515 150.889618,218.354279 150.181656,223.209778 
	C149.075119,224.784302 147.315201,226.229736 146.974274,227.955505 
	C145.433182,235.756439 143.191467,243.636200 143.188477,251.488342 
	C143.169449,301.288330 143.337860,351.094482 144.215042,400.885010 
	C144.483551,416.125977 150.994843,429.177094 166.817902,434.066406 
	C175.108109,436.628082 184.145493,437.826050 192.848389,437.840271 
	C330.662720,438.065674 468.477570,438.023804 606.292297,437.954803 
	C618.264160,437.948792 630.245483,437.521942 642.205322,436.939545 
	C660.567566,436.045349 673.217773,425.753845 676.704834,408.621613 
	C678.057068,401.978119 678.872742,395.104919 678.901306,388.332001 
	C679.090576,343.505554 679.089172,298.677490 678.903015,253.850983 
	C678.874878,247.077026 678.038635,240.215576 676.744263,233.556290 
	C673.876038,218.799362 663.591309,208.436310 650.999634,206.244812 
	C650.237183,201.090103 646.243713,202.020691 642.862732,202.020157 
	C522.075684,202.000793 401.288605,202.003540 280.501556,202.011459 
	C278.672028,202.011581 276.842468,202.115326 274.214661,202.034607 
	C273.138763,202.080307 272.062897,202.125992 270.060150,202.035141 
z"/>
<path fill="#FFFFFF" opacity="1.000000" stroke="none" 
	d="
M275.012939,202.170700 
	C276.842468,202.115326 278.672028,202.011581 280.501556,202.011459 
	C401.288605,202.003540 522.075684,202.000793 642.862732,202.020157 
	C646.243713,202.020691 650.237183,201.090103 651.018188,207.084442 
	C651.080017,211.950470 651.123352,215.976898 651.100281,220.437073 
	C651.078369,222.914749 651.122864,224.958679 651.099670,227.427307 
	C651.076782,229.568863 651.121582,231.285706 651.098022,233.442566 
	C651.074768,236.255524 651.119812,238.628464 651.097046,241.465698 
	C651.019104,245.591049 651.000305,249.252106 651.000122,252.913147 
	C650.998230,299.509552 650.989868,346.105988 651.018616,392.702393 
	C651.020630,395.983337 651.157654,399.186798 646.531006,400.088928 
	C525.041260,400.017914 404.016510,400.008240 282.991730,399.989502 
	C280.331451,399.989105 277.671173,399.885101 275.008820,399.371460 
	C275.008820,333.332550 275.010895,267.751617 275.012939,202.170700 
M592.948853,261.076843 
	C586.947205,260.785858 588.071960,265.272217 588.171387,268.643677 
	C588.268250,271.923798 589.881958,274.022461 594.223572,272.148499 
	C596.186279,268.454407 596.530396,264.845062 592.948853,261.076843 
M601.948853,261.076843 
	C595.946899,260.785797 597.072632,265.272491 597.171875,268.643646 
	C597.268433,271.923828 598.881836,274.022552 603.223572,272.148499 
	C605.186279,268.454407 605.530396,264.845062 601.948853,261.076843 
M501.623444,357.443756 
	C500.805206,358.118073 499.986969,358.792358 499.150299,359.481812 
	C498.344208,358.018738 497.580109,356.631866 496.816010,355.244965 
	C496.643250,355.366119 496.470490,355.487274 496.297699,355.608429 
	C496.843414,359.327637 497.389099,363.046814 497.971588,367.017059 
	C501.191101,364.999237 501.129608,360.755219 501.940521,356.791016 
	C501.940521,356.791016 502.259888,356.883972 502.259888,356.883972 
	C502.259888,356.883972 502.003876,356.912689 501.623444,357.443756 
M601.742920,300.337830 
	C600.772949,300.495941 599.803040,300.654053 598.268311,301.322174 
	C596.495178,304.783600 595.951172,308.337006 599.073486,311.158020 
	C599.789185,311.804688 603.008484,311.189026 603.524536,310.276794 
	C605.378845,306.999268 605.889038,303.444397 601.742920,300.337830 
M425.021118,297.026398 
	C446.584747,297.026398 468.148407,297.026398 489.700745,297.026398 
	C489.700745,290.302948 489.700745,284.384888 489.700745,277.875275 
	C467.637329,277.875275 445.869110,277.875275 424.041321,276.959747 
	C424.026703,274.130829 423.749634,271.273041 424.057037,268.479553 
	C424.557465,263.931793 422.586487,262.838165 418.333710,262.917480 
	C405.690552,263.153229 393.040100,263.001282 380.392517,263.001312 
	C353.266754,263.001373 326.140015,263.117279 299.016083,262.895386 
	C294.127777,262.855377 292.409088,264.366241 292.947083,269.127594 
	C293.281708,272.088776 293.082611,275.110229 293.027344,279.023499 
	C293.059296,284.980927 293.091278,290.938354 293.052948,297.837524 
	C293.035736,299.667542 293.004822,301.497589 293.003754,303.327606 
	C292.999237,310.991608 293.002502,310.997284 300.456573,310.997711 
	C337.893158,310.999817 375.329773,310.998749 412.766357,310.998749 
	C423.906311,310.998749 423.904480,310.998596 424.006226,300.117188 
	C424.015564,299.119476 424.068451,298.122131 425.021118,297.026398 
M445.307220,356.009949 
	C443.047089,356.009949 440.786926,356.009949 438.307678,356.009949 
	C438.307678,359.534058 438.307678,362.551117 438.307678,365.642059 
	C441.638916,365.642059 444.656036,365.642059 448.894928,365.642059 
	C447.891235,362.032593 447.058502,359.037903 445.307220,356.009949 
M294.045410,363.550873 
	C296.883606,363.343262 300.324982,364.003235 302.335724,362.605377 
	C303.558441,361.755341 303.549469,356.958954 302.287994,355.359619 
	C301.164520,353.935303 297.480194,353.995941 295.084076,354.381927 
	C294.166107,354.529816 293.452515,357.345612 293.085205,359.040833 
	C292.822540,360.252991 293.291901,361.623718 294.045410,363.550873 
M531.198608,263.845795 
	C531.198608,266.781067 531.198608,269.716339 531.198608,272.651611 
	C531.658325,272.645966 532.117981,272.640350 532.577698,272.634705 
	C532.951599,271.140015 533.325562,269.645355 534.106140,266.525299 
	C536.319641,269.259705 537.701538,270.966736 539.068115,272.654938 
	C539.068115,270.214600 539.323853,267.829620 538.978088,265.535309 
	C538.747864,264.007721 537.744690,261.447418 536.937744,261.388153 
	C535.090027,261.252441 533.150574,262.366669 531.198608,263.845795 
M569.727722,311.926849 
	C571.114990,311.070435 573.611694,310.294250 573.680542,309.342499 
	C573.883301,306.538177 573.123962,303.664307 572.741211,300.817657 
	C571.005005,301.117493 567.750122,301.486938 567.760193,301.706726 
	C567.913940,305.060974 568.494263,308.395721 569.727722,311.926849 
M479.588928,363.242828 
	C481.536560,363.485809 483.484222,363.728760 485.351776,363.961731 
	C485.351776,359.396820 485.351776,355.758179 485.351776,351.800171 
	C484.245453,353.152710 483.598724,354.739990 482.736542,354.867218 
	C477.419281,355.651917 477.984955,358.958984 479.588928,363.242828 
M374.807922,354.632385 
	C370.735291,354.809143 368.659485,356.848022 369.520081,360.953247 
	C370.448578,365.382355 373.595184,363.976135 376.279541,363.561554 
	C376.279541,359.498535 376.279541,355.818146 376.279541,352.137787 
	C376.032471,352.131775 375.785400,352.125793 375.538361,352.119781 
	C375.381653,352.731018 375.224945,353.342255 374.807922,354.632385 
M538.972229,306.931274 
	C538.314270,304.731323 538.063477,302.239136 536.797607,300.475525 
	C536.292358,299.771545 532.153870,300.383820 532.046509,300.895630 
	C531.357971,304.177704 531.330078,307.598358 531.027466,311.766357 
	C533.123474,309.581970 534.339661,307.398773 535.320862,307.499756 
	C536.918884,307.664215 538.363342,309.320923 539.342896,309.987457 
	C539.336243,309.918274 539.229736,308.808258 538.972229,306.931274 
M582.975525,301.743042 
	C583.507324,301.344879 584.039062,300.946747 585.152954,300.112732 
	C580.027527,300.855896 577.813538,304.373962 579.487671,308.631226 
	C580.028687,310.007019 581.782471,311.206940 583.256592,311.781281 
	C583.941345,312.048096 586.044678,310.743103 586.166748,309.945740 
	C586.406433,308.380188 585.972351,306.555847 585.314575,305.059448 
	C584.818848,303.931519 583.540405,303.147614 582.975525,301.743042 
M471.216827,363.612366 
	C473.030762,363.010986 475.894196,362.862976 476.398468,361.695740 
	C477.059540,360.165588 476.187775,357.660706 475.289337,355.931427 
	C474.955261,355.288422 471.689240,355.178589 471.470490,355.638733 
	C470.566193,357.540649 470.269592,359.745270 469.874573,361.862000 
	C469.808929,362.213776 470.363556,362.681366 471.216827,363.612366 
M385.914825,359.725616 
	C384.980194,358.181427 384.266632,356.398163 382.993011,355.220581 
	C382.536835,354.798767 380.728363,355.839508 379.537048,356.212769 
	C379.610016,356.505615 379.682983,356.798462 379.755951,357.091339 
	C381.050659,357.149841 382.345367,357.208374 383.385345,357.255371 
	C381.849274,358.998840 380.444580,360.593170 379.039886,362.187500 
	C380.235901,362.781921 381.378571,363.688568 382.639343,363.904053 
	C385.058350,364.317474 386.331696,363.165375 385.914825,359.725616 
M592.600586,301.927460 
	C593.115784,301.621704 593.630981,301.315979 594.383850,300.869202 
	C589.197021,299.618408 588.934937,299.882660 589.251831,305.277863 
	C590.586548,306.254242 591.775085,307.123657 592.963623,307.993042 
	C591.722961,308.783356 590.482239,309.573639 589.241577,310.363922 
	C590.847168,311.282349 593.650574,311.742065 594.133301,310.888824 
	C594.961609,309.424835 594.598694,307.089752 594.229675,305.220306 
	C594.012695,304.120880 592.819336,303.214142 592.600586,301.927460 
M543.549744,270.351013 
	C542.942078,270.531860 542.334473,270.712708 541.726807,270.893555 
	C542.114624,271.531860 542.489868,272.702332 542.892639,272.711914 
	C544.283142,272.744995 546.769897,272.626221 546.889832,272.111359 
	C547.382080,269.997406 547.366394,267.685760 547.055786,265.515778 
	C546.969727,264.914673 545.230957,264.214172 544.232910,264.186188 
	C543.439331,264.163879 541.862427,265.313995 541.935852,265.570282 
	C542.348389,267.009247 543.155640,268.335083 543.549744,270.351013 
M335.896271,364.092621 
	C338.704407,363.435852 340.820435,357.713593 338.705597,356.006287 
	C337.836243,355.304443 335.984253,355.443542 334.733154,355.777191 
	C334.237640,355.909332 333.773071,357.711212 333.997925,358.568268 
	C334.239471,359.488983 335.307343,360.192902 336.014618,360.991425 
	C335.502136,361.169434 334.989685,361.347443 334.477203,361.525482 
	C334.707977,362.339020 334.938751,363.152588 335.896271,364.092621 
M564.475342,272.189697 
	C563.436890,271.817932 562.398438,271.446167 561.095642,270.979767 
	C562.055176,269.615326 563.203125,268.637177 563.463745,267.462250 
	C563.876709,265.599976 563.696106,263.606018 563.766602,261.667786 
	C561.913879,262.028473 560.057678,262.374268 558.221252,262.804688 
	C558.148254,262.821808 558.263672,263.643219 558.297241,264.187256 
	C559.686523,263.604980 560.907227,263.093353 562.127869,262.581726 
	C562.534607,262.897552 562.941284,263.213409 563.348022,263.529236 
	C561.616882,266.541748 559.885742,269.554260 557.989319,272.854462 
	C560.341125,272.854462 562.300415,272.854462 564.475342,272.189697 
M391.939331,357.338348 
	C391.526154,358.116455 391.113007,358.894562 390.596893,359.866577 
	C389.681091,358.038239 388.935638,356.550079 388.190186,355.061920 
	C387.988586,355.159668 387.786957,355.257416 387.585358,355.355164 
	C388.159515,359.172852 388.733704,362.990540 389.367188,367.202484 
	C392.377014,364.258240 392.865479,359.819580 393.280457,355.263000 
	C392.897827,355.727417 392.515167,356.191833 391.939331,357.338348 
M570.767883,265.923798 
	C570.388550,266.355072 569.600464,266.992218 569.697021,267.183899 
	C570.277100,268.335938 571.060242,269.385742 571.775391,270.469757 
	C570.262024,270.627655 568.748718,270.785553 567.235352,270.943451 
	C568.661682,272.282623 570.693115,273.248260 571.865479,272.617401 
	C572.919189,272.050446 573.131409,269.755219 573.516235,268.174011 
	C573.731812,267.288208 573.731812,266.253906 573.495972,265.376007 
	C573.107727,263.931152 572.758362,261.693024 571.831055,261.361816 
	C570.486633,260.881653 568.642151,261.801727 567.010925,262.124542 
	C567.097595,262.518066 567.184326,262.911560 567.270996,263.305084 
	C571.182922,262.527069 571.182922,262.527069 570.767883,265.923798 
M355.167023,357.236633 
	C354.378448,356.283447 353.589874,355.330292 352.452057,353.954987 
	C355.228363,353.363617 356.825684,353.023346 358.423035,352.683105 
	C358.368103,352.548950 358.313171,352.414795 358.258270,352.280640 
	C356.036377,352.280640 353.814484,352.280640 351.834656,352.280640 
	C351.834656,356.355499 351.834656,360.027039 351.834656,363.698578 
	C352.141602,363.683899 352.448578,363.669220 352.755524,363.654510 
	C352.955719,362.235504 353.155914,360.816467 353.358398,359.381195 
	C354.903381,359.090363 356.231201,358.840393 359.023895,358.314697 
	C357.052582,357.664215 356.498596,357.481415 355.167023,357.236633 
M541.823425,310.739990 
	C542.770752,311.175079 542.770752,311.175079 544.233215,305.330109 
	C545.197144,305.268372 546.202454,305.203979 547.207764,305.139587 
	C547.195435,304.620056 547.183105,304.100525 547.170776,303.580994 
	C545.533508,303.707855 543.896179,303.834717 542.258911,303.961578 
	C542.940552,305.909454 543.622131,307.857330 544.280762,309.739532 
	C543.799438,309.823792 542.771423,310.003784 541.823425,310.739990 
M318.100250,360.220795 
	C318.100250,357.603149 318.100250,354.985504 318.100250,352.367859 
	C317.606262,352.393677 317.112244,352.419464 316.618256,352.445251 
	C316.618256,356.210144 316.618256,359.975037 316.618256,363.770844 
	C318.786194,363.770844 320.600830,363.770844 322.657806,363.770844 
	C320.927826,362.748047 319.540344,361.927765 318.100250,360.220795 
z"/>
<path fill="#FFFFFE" opacity="1.000000" stroke="none" 
	d="
M150.833191,223.006134 
	C150.889618,218.354279 150.956589,213.702515 150.999863,209.050537 
	C151.057327,202.874115 151.830521,202.011978 157.830048,202.010864 
	C195.240082,202.003998 232.650116,202.024017 270.526184,202.561035 
	C270.991180,268.667389 270.990173,334.247864 270.526001,399.898865 
	C238.376923,400.035553 206.691055,400.101654 174.592148,400.097046 
	C172.786194,400.072418 171.393280,400.118500 169.587646,400.095215 
	C167.783997,400.072906 166.393066,400.119995 164.605759,400.098328 
	C163.140778,400.075745 162.072144,400.121887 160.590668,400.098877 
	C158.786118,400.075256 157.394409,400.120789 155.621674,400.083160 
	C150.788284,399.432861 150.987137,396.134399 150.988434,392.872925 
	C151.003525,354.900604 151.015640,316.928314 150.990891,278.955994 
	C150.978729,260.306000 150.888229,241.656082 150.833191,223.006134 
M245.695892,232.898987 
	C248.060394,229.491898 245.135361,229.472626 243.264572,228.339767 
	C244.289963,227.811996 245.315369,227.284210 246.340759,226.756424 
	C246.291702,226.365326 246.242645,225.974243 246.193573,225.583160 
	C244.733124,225.761063 243.272659,225.938980 241.812195,226.116882 
	C242.162872,227.135086 242.513565,228.153305 243.244675,229.662720 
	C243.804672,230.745651 244.364685,231.828583 244.355331,232.825577 
	C243.410278,232.613022 242.465210,232.400452 241.520157,232.187897 
	C241.515610,232.625244 241.511078,233.062576 241.506546,233.499924 
	C242.697464,233.372955 243.888382,233.245972 245.695892,232.898987 
M215.024048,232.584549 
	C215.400253,232.778900 215.776459,232.973267 216.152649,233.167633 
	C215.858734,232.682114 215.564835,232.196579 215.216675,231.017929 
	C215.448425,229.275513 215.680191,227.533096 215.940109,225.578873 
	C214.717850,226.078888 213.636185,226.521393 212.490616,226.990021 
	C212.091614,225.102646 211.775772,223.608597 211.459930,222.114563 
	C211.159134,222.143875 210.858353,222.173187 210.557556,222.202484 
	C210.557556,225.786209 210.557556,229.369919 210.557556,232.177795 
	C212.318115,232.177795 213.570801,232.177795 215.024048,232.584549 
M233.948303,285.726196 
	C233.732086,284.081360 233.599960,282.420227 233.284958,280.794525 
	C232.004593,274.186401 228.148300,270.806732 222.166794,270.970551 
	C216.520523,271.125183 212.537277,274.616547 211.927750,281.097656 
	C211.404663,286.659607 211.426102,292.360992 212.013290,297.915436 
	C212.658020,304.014435 216.701584,307.329498 222.264038,307.489136 
	C228.054916,307.655304 232.081924,304.395477 233.166840,298.053436 
	C233.805649,294.319122 233.719864,290.460815 233.948303,285.726196 
M200.742859,276.837646 
	C202.915070,281.032104 201.380936,284.685791 198.768066,287.916840 
	C194.897888,292.702606 190.724396,297.241943 186.771454,301.962769 
	C185.706070,303.235107 184.971100,304.784088 183.875076,306.541901 
	C191.867004,306.541901 199.000275,306.541901 206.133545,306.541901 
	C206.168594,305.933563 206.203629,305.325195 206.238678,304.716858 
	C200.654373,304.716858 195.070084,304.716858 189.485779,304.716858 
	C191.358749,300.811157 193.513443,298.527283 195.447922,296.070068 
	C198.319244,292.422852 201.523636,288.915344 203.695251,284.870087 
	C206.543015,279.565308 204.001587,273.684845 198.756409,271.680908 
	C193.226379,269.568146 186.352158,272.265076 184.530273,277.452881 
	C184.089752,278.707245 184.464798,280.248047 184.464798,282.647705 
	C192.161530,272.591248 194.574890,271.719391 200.742859,276.837646 
M187.074203,233.892807 
	C189.671555,232.156921 191.222977,224.859665 188.942657,223.327255 
	C187.481537,222.345337 183.363419,222.408401 183.267319,222.765305 
	C182.516632,225.553146 182.090866,228.561890 182.376434,231.421387 
	C182.473480,232.393219 184.897751,233.132645 187.074203,233.892807 
M238.861343,233.778442 
	C238.890717,232.279572 239.201950,230.714630 238.870377,229.300385 
	C238.537186,227.879242 237.836685,225.842529 236.799332,225.472992 
	C235.610870,225.049637 233.093658,225.735474 232.557587,226.710938 
	C231.737015,228.204117 231.596039,230.538620 232.161926,232.170975 
	C232.579712,233.376099 234.584534,234.031036 235.874924,234.926010 
	C235.245499,235.693588 234.702042,236.356339 234.158569,237.019089 
	C234.494781,237.327316 234.830994,237.635559 235.167191,237.943787 
	C236.350754,236.813766 237.534317,235.683762 238.861343,233.778442 
M206.733627,233.191116 
	C207.164688,232.169952 208.017899,231.110245 207.929001,230.136551 
	C207.791763,228.633636 207.323608,226.914368 206.374359,225.831833 
	C205.867676,225.254044 203.467957,225.341522 202.960831,225.968506 
	C201.944229,227.225327 201.101517,229.078644 201.158890,230.650284 
	C201.267258,233.618164 203.369675,234.343872 206.733627,233.191116 
M188.061356,363.868591 
	C191.814301,360.906921 190.109787,359.092255 186.855759,357.307861 
	C185.800491,356.729187 185.172134,355.371979 184.348511,354.370911 
	C185.712860,354.576294 187.075226,354.796661 188.442749,354.978271 
	C188.869827,355.034943 189.310776,354.987091 189.745377,354.987091 
	C189.891815,354.556427 190.038254,354.125763 190.184692,353.695099 
	C188.441498,353.114655 186.710190,352.163452 184.950195,352.107056 
	C184.043442,352.078003 182.158203,354.123749 182.304642,354.405273 
	C183.123642,355.979980 184.425552,357.304291 185.567444,358.710083 
	C186.307327,359.620972 187.055710,360.524872 187.800293,361.431915 
	C186.551910,361.559692 185.303970,361.768829 184.054916,361.775787 
	C183.544357,361.778656 183.031357,361.343811 182.519485,361.108093 
	C182.337219,361.605621 182.154953,362.103149 181.972687,362.600677 
	C183.739487,363.088531 185.506287,363.576385 188.061356,363.868591 
M196.397263,225.242386 
	C192.237198,225.387146 191.402252,228.193802 192.361237,231.311310 
	C192.711914,232.451263 195.698898,233.933426 196.739426,233.494873 
	C200.046463,232.100967 199.397232,229.147278 198.226151,226.434479 
	C198.053741,226.035110 197.507812,225.796982 196.397263,225.242386 
M213.803207,362.715027 
	C213.247589,362.053864 212.691971,361.392670 211.974991,360.539490 
	C213.983902,360.174072 215.521347,359.894379 217.058792,359.614716 
	C217.307007,359.136963 217.555222,358.659180 217.803421,358.181427 
	C216.229050,357.150970 214.654694,356.120483 213.080322,355.089996 
	C212.060211,356.776245 209.998993,358.684326 210.298370,360.089447 
	C210.630447,361.648041 213.118073,362.747375 214.667114,364.046722 
	C214.624405,363.637115 214.581711,363.227478 213.803207,362.715027 
M229.101410,230.660629 
	C228.320999,228.864899 227.833527,226.813889 226.607224,225.406723 
	C226.155212,224.888062 222.950089,225.583633 222.749023,226.251602 
	C222.125320,228.323868 222.341141,230.648788 222.231155,232.875671 
	C222.614822,232.874313 222.998489,232.872955 223.382156,232.871597 
	C223.922806,230.993301 224.463455,229.115005 225.004120,227.236710 
	C225.485886,227.214157 225.967667,227.191605 226.449448,227.169052 
	C227.075699,228.831680 227.701965,230.494293 228.328232,232.156906 
	C228.547623,232.029922 228.797180,231.934235 228.974350,231.763474 
	C229.070740,231.670578 229.044159,231.450119 229.101410,230.660629 
z"/>
<path fill="#F3584F" opacity="1.000000" stroke="none" 
	d="
M150.507416,223.107956 
	C150.888229,241.656082 150.978729,260.306000 150.990891,278.955994 
	C151.015640,316.928314 151.003525,354.900604 150.988434,392.872925 
	C150.987137,396.134399 150.788284,399.432861 155.621704,400.493713 
	C156.630447,411.477936 161.636200,419.355743 171.488251,422.765747 
	C178.434448,425.169922 186.042480,426.816406 193.358154,426.828033 
	C338.464783,427.057800 483.571930,427.021027 628.678833,426.915009 
	C634.115723,426.911041 639.655151,426.118561 644.965942,424.903076 
	C655.082458,422.587646 662.573486,416.702942 665.226379,406.348083 
	C666.782104,400.275726 667.850098,393.894165 667.881958,387.645264 
	C668.104980,343.997711 668.095215,300.347992 667.898071,256.700165 
	C667.868164,250.102036 667.104736,243.358231 665.555115,236.954117 
	C663.674438,229.181641 659.907227,222.293365 651.166687,220.003311 
	C651.123352,215.976898 651.080017,211.950470 651.101807,207.465149 
	C663.591309,208.436310 673.876038,218.799362 676.744263,233.556290 
	C678.038635,240.215576 678.874878,247.077026 678.903015,253.850983 
	C679.089172,298.677490 679.090576,343.505554 678.901306,388.332001 
	C678.872742,395.104919 678.057068,401.978119 676.704834,408.621613 
	C673.217773,425.753845 660.567566,436.045349 642.205322,436.939545 
	C630.245483,437.521942 618.264160,437.948792 606.292297,437.954803 
	C468.477570,438.023804 330.662720,438.065674 192.848389,437.840271 
	C184.145493,437.826050 175.108109,436.628082 166.817902,434.066406 
	C150.994843,429.177094 144.483551,416.125977 144.215042,400.885010 
	C143.337860,351.094482 143.169449,301.288330 143.188477,251.488342 
	C143.191467,243.636200 145.433182,235.756439 146.974274,227.955505 
	C147.315201,226.229736 149.075119,224.784302 150.507416,223.107956 
z"/>
<path fill="#F8F8F8" opacity="1.000000" stroke="none" 
	d="
M270.989166,399.828308 
	C270.990173,334.247864 270.991180,268.667389 270.989594,202.629303 
	C272.062897,202.125992 273.138763,202.080307 274.613800,202.102661 
	C275.010895,267.751617 275.008820,333.332550 274.610382,399.441986 
	C273.139069,399.923096 272.064117,399.875702 270.989166,399.828308 
z"/>
<path fill="#D14C44" opacity="1.000000" stroke="none" 
	d="
M270.526001,399.898865 
	C272.064117,399.875702 273.139069,399.923096 274.612457,399.899963 
	C277.671173,399.885101 280.331451,399.989105 282.991730,399.989502 
	C404.016510,400.008240 525.041260,400.017914 646.441772,400.411133 
	C642.281860,408.742432 634.567566,409.957581 626.558044,409.960541 
	C482.802155,410.013977 339.046265,409.999542 195.290390,409.997070 
	C194.124680,409.997070 192.935150,410.107147 191.797165,409.920044 
	C184.976532,408.798737 178.188416,407.569855 175.005173,400.167755 
	C206.691055,400.101654 238.376923,400.035553 270.526001,399.898865 
z"/>
<path fill="#E9544B" opacity="1.000000" stroke="none" 
	d="
M651.100281,220.437073 
	C659.907227,222.293365 663.674438,229.181641 665.555115,236.954117 
	C667.104736,243.358231 667.868164,250.102036 667.898071,256.700165 
	C668.095215,300.347992 668.104980,343.997711 667.881958,387.645264 
	C667.850098,393.894165 666.782104,400.275726 665.226379,406.348083 
	C662.573486,416.702942 655.082458,422.587646 644.965942,424.903076 
	C639.655151,426.118561 634.115723,426.911041 628.678833,426.915009 
	C483.571930,427.021027 338.464783,427.057800 193.358154,426.828033 
	C186.042480,426.816406 178.434448,425.169922 171.488251,422.765747 
	C161.636200,419.355743 156.630447,411.477936 156.002747,400.576874 
	C157.394409,400.120789 158.786118,400.075256 160.672562,400.448242 
	C165.684921,414.752472 174.252701,420.987244 189.139389,420.988983 
	C336.963776,421.006500 484.788147,421.007324 632.612549,420.989990 
	C650.799988,420.987854 661.932800,409.852966 661.993530,391.729279 
	C662.027588,381.563354 662.000061,371.397217 662.000061,361.231171 
	C661.999878,324.066742 662.162354,286.901123 661.880493,249.738815 
	C661.813110,240.847137 660.041687,232.073212 651.167297,227.002594 
	C651.122864,224.958679 651.078369,222.914749 651.100281,220.437073 
z"/>
<path fill="#FFB338" opacity="1.000000" stroke="none" 
	d="
M424.100891,277.875305 
	C445.869110,277.875275 467.637329,277.875275 489.700745,277.875275 
	C489.700745,284.384888 489.700745,290.302948 489.700745,297.026398 
	C468.148407,297.026398 446.584747,297.026398 424.087097,297.038940 
	C418.669373,297.034363 414.185669,297.006104 409.701996,297.001740 
	C370.842407,296.963959 331.982849,296.930511 293.123260,296.895782 
	C293.091278,290.938354 293.059296,284.980927 293.534821,278.533142 
	C298.693176,278.028503 303.344025,278.006531 307.994904,278.001251 
	C346.696899,277.957520 385.398895,277.916870 424.100891,277.875305 
z"/>
<path fill="#DF5148" opacity="1.000000" stroke="none" 
	d="
M165.002121,400.167084 
	C166.393066,400.119995 167.783997,400.072906 169.597015,400.461731 
	C170.759781,402.507904 171.230972,404.326263 172.286621,405.693298 
	C177.595230,412.567810 185.112915,414.015381 193.239594,414.014374 
	C338.345184,413.996155 483.450745,414.001251 628.556335,414.000031 
	C629.888977,414.000000 631.224731,414.037659 632.553833,413.963989 
	C644.153015,413.321014 652.099121,406.975861 654.180786,395.583008 
	C655.244690,389.760101 654.963928,383.657684 654.972046,377.681213 
	C655.028381,336.198761 655.034912,294.716125 654.950378,253.233765 
	C654.941467,248.874268 655.540466,244.107697 651.164917,241.001389 
	C651.119812,238.628464 651.074768,236.255524 651.424622,233.536072 
	C658.224854,237.257767 658.800598,244.149124 658.838257,250.411148 
	C659.120789,297.400238 659.135071,344.392792 658.794922,391.381073 
	C658.757141,396.608215 656.941284,402.392242 654.256165,406.911591 
	C648.710999,416.244690 638.955322,417.967896 628.987732,417.970795 
	C483.682953,418.013123 338.378174,418.010040 193.073425,417.943726 
	C189.282135,417.941986 185.370041,417.553894 181.724518,416.568329 
	C173.206039,414.265442 166.576599,409.705750 165.002121,400.167084 
z"/>
<path fill="#DA4F46" opacity="1.000000" stroke="none" 
	d="
M651.097107,241.465698 
	C655.540466,244.107697 654.941467,248.874268 654.950378,253.233765 
	C655.034912,294.716125 655.028381,336.198761 654.972046,377.681213 
	C654.963928,383.657684 655.244690,389.760101 654.180786,395.583008 
	C652.099121,406.975861 644.153015,413.321014 632.553833,413.963989 
	C631.224731,414.037659 629.888977,414.000000 628.556335,414.000031 
	C483.450745,414.001251 338.345184,413.996155 193.239594,414.014374 
	C185.112915,414.015381 177.595230,412.567810 172.286621,405.693298 
	C171.230972,404.326263 170.759781,402.507904 170.009720,400.531128 
	C171.393280,400.118500 172.786194,400.072418 174.592148,400.097046 
	C178.188416,407.569855 184.976532,408.798737 191.797165,409.920044 
	C192.935150,410.107147 194.124680,409.997070 195.290390,409.997070 
	C339.046265,409.999542 482.802155,410.013977 626.558044,409.960541 
	C634.567566,409.957581 642.281860,408.742432 646.906738,400.471436 
	C651.157654,399.186798 651.020630,395.983337 651.018616,392.702393 
	C650.989868,346.105988 650.998230,299.509552 651.000122,252.913147 
	C651.000305,249.252106 651.019104,245.591049 651.097107,241.465698 
z"/>
<path fill="#E35249" opacity="1.000000" stroke="none" 
	d="
M164.605759,400.098328 
	C166.576599,409.705750 173.206039,414.265442 181.724518,416.568329 
	C185.370041,417.553894 189.282135,417.941986 193.073425,417.943726 
	C338.378174,418.010040 483.682953,418.013123 628.987732,417.970795 
	C638.955322,417.967896 648.710999,416.244690 654.256165,406.911591 
	C656.941284,402.392242 658.757141,396.608215 658.794922,391.381073 
	C659.135071,344.392792 659.120789,297.400238 658.838257,250.411148 
	C658.800598,244.149124 658.224854,237.257767 651.492920,233.096039 
	C651.121582,231.285706 651.076782,229.568863 651.099670,227.427307 
	C660.041687,232.073212 661.813110,240.847137 661.880493,249.738815 
	C662.162354,286.901123 661.999878,324.066742 662.000061,361.231171 
	C662.000061,371.397217 662.027588,381.563354 661.993530,391.729279 
	C661.932800,409.852966 650.799988,420.987854 632.612549,420.989990 
	C484.788147,421.007324 336.963776,421.006500 189.139389,420.988983 
	C174.252701,420.987244 165.684921,414.752472 161.085419,400.517395 
	C162.072144,400.121887 163.140778,400.075745 164.605759,400.098328 
z"/>
<path fill="#FADC9C" opacity="1.000000" stroke="none" 
	d="
M424.071106,277.417542 
	C385.398895,277.916870 346.696899,277.957520 307.994904,278.001251 
	C303.344025,278.006531 298.693176,278.028503 293.582703,278.073700 
	C293.082611,275.110229 293.281708,272.088776 292.947083,269.127594 
	C292.409088,264.366241 294.127777,262.855377 299.016083,262.895386 
	C326.140015,263.117279 353.266754,263.001373 380.392517,263.001312 
	C393.040100,263.001282 405.690552,263.153229 418.333710,262.917480 
	C422.586487,262.838165 424.557465,263.931793 424.057037,268.479553 
	C423.749634,271.273041 424.026703,274.130829 424.071106,277.417542 
z"/>
<path fill="#FADC9C" opacity="1.000000" stroke="none" 
	d="
M293.088104,297.366638 
	C331.982849,296.930511 370.842407,296.963959 409.701996,297.001740 
	C414.185669,297.006104 418.669373,297.034363 423.627075,297.088074 
	C424.068451,298.122131 424.015564,299.119476 424.006226,300.117188 
	C423.904480,310.998596 423.906311,310.998749 412.766357,310.998749 
	C375.329773,310.998749 337.893158,310.999817 300.456573,310.997711 
	C293.002502,310.997284 292.999237,310.991608 293.003754,303.327606 
	C293.004822,301.497589 293.035736,299.667542 293.088104,297.366638 
z"/>
<path fill="#FFB338" opacity="1.000000" stroke="none" 
	d="
M445.766479,356.026581 
	C447.058502,359.037903 447.891235,362.032593 448.894928,365.642059 
	C444.656036,365.642059 441.638916,365.642059 438.307678,365.642059 
	C438.307678,362.551117 438.307678,359.534058 438.307678,356.009949 
	C440.786926,356.009949 443.047089,356.009949 445.766479,356.026581 
z"/>
<path fill="#FADC9C" opacity="1.000000" stroke="none" 
	d="
M293.740021,363.237305 
	C293.291901,361.623718 292.822540,360.252991 293.085205,359.040833 
	C293.452515,357.345612 294.166107,354.529816 295.084076,354.381927 
	C297.480194,353.995941 301.164520,353.935303 302.287994,355.359619 
	C303.549469,356.958954 303.558441,361.755341 302.335724,362.605377 
	C300.324982,364.003235 296.883606,363.343262 293.740021,363.237305 
z"/>
<path fill="#FFC25E" opacity="1.000000" stroke="none" 
	d="
M531.223511,263.409546 
	C533.150574,262.366669 535.090027,261.252441 536.937744,261.388153 
	C537.744690,261.447418 538.747864,264.007721 538.978088,265.535309 
	C539.323853,267.829620 539.068115,270.214600 539.068115,272.654938 
	C537.701538,270.966736 536.319641,269.259705 534.106140,266.525299 
	C533.325562,269.645355 532.951599,271.140015 532.577698,272.634705 
	C532.117981,272.640350 531.658325,272.645966 531.198608,272.651611 
	C531.198608,269.716339 531.198608,266.781067 531.223511,263.409546 
z"/>
<path fill="#FCE3B0" opacity="1.000000" stroke="none" 
	d="
M569.351379,311.830933 
	C568.494263,308.395721 567.913940,305.060974 567.760193,301.706726 
	C567.750122,301.486938 571.005005,301.117493 572.741211,300.817657 
	C573.123962,303.664307 573.883301,306.538177 573.680542,309.342499 
	C573.611694,310.294250 571.114990,311.070435 569.351379,311.830933 
z"/>
<path fill="#929292" opacity="1.000000" stroke="none" 
	d="
M479.333557,362.932068 
	C477.984955,358.958984 477.419281,355.651917 482.736542,354.867218 
	C483.598724,354.739990 484.245453,353.152710 485.351776,351.800171 
	C485.351776,355.758179 485.351776,359.396820 485.351776,363.961731 
	C483.484222,363.728760 481.536560,363.485809 479.333557,362.932068 
z"/>
<path fill="#929292" opacity="1.000000" stroke="none" 
	d="
M374.938080,354.292938 
	C375.224945,353.342255 375.381653,352.731018 375.538361,352.119781 
	C375.785400,352.125793 376.032471,352.131775 376.279541,352.137787 
	C376.279541,355.818146 376.279541,359.498535 376.279541,363.561554 
	C373.595184,363.976135 370.448578,365.382355 369.520081,360.953247 
	C368.659485,356.848022 370.735291,354.809143 374.938080,354.292938 
z"/>
<path fill="#FCE3B0" opacity="1.000000" stroke="none" 
	d="
M539.047729,307.314758 
	C539.229736,308.808258 539.336243,309.918274 539.342896,309.987457 
	C538.363342,309.320923 536.918884,307.664215 535.320862,307.499756 
	C534.339661,307.398773 533.123474,309.581970 531.027466,311.766357 
	C531.330078,307.598358 531.357971,304.177704 532.046509,300.895630 
	C532.153870,300.383820 536.292358,299.771545 536.797607,300.475525 
	C538.063477,302.239136 538.314270,304.731323 539.047729,307.314758 
z"/>
<path fill="#FCE3B0" opacity="1.000000" stroke="none" 
	d="
M582.792969,301.976807 
	C583.540405,303.147614 584.818848,303.931519 585.314575,305.059448 
	C585.972351,306.555847 586.406433,308.380188 586.166748,309.945740 
	C586.044678,310.743103 583.941345,312.048096 583.256592,311.781281 
	C581.782471,311.206940 580.028687,310.007019 579.487671,308.631226 
	C577.813538,304.373962 580.027527,300.855896 585.152954,300.112732 
	C584.039062,300.946747 583.507324,301.344879 582.792969,301.976807 
z"/>
<path fill="#929292" opacity="1.000000" stroke="none" 
	d="
M470.924194,363.353882 
	C470.363556,362.681366 469.808929,362.213776 469.874573,361.862000 
	C470.269592,359.745270 470.566193,357.540649 471.470490,355.638733 
	C471.689240,355.178589 474.955261,355.288422 475.289337,355.931427 
	C476.187775,357.660706 477.059540,360.165588 476.398468,361.695740 
	C475.894196,362.862976 473.030762,363.010986 470.924194,363.353882 
z"/>
<path fill="#929292" opacity="1.000000" stroke="none" 
	d="
M385.916168,360.148010 
	C386.331696,363.165375 385.058350,364.317474 382.639343,363.904053 
	C381.378571,363.688568 380.235901,362.781921 379.039886,362.187500 
	C380.444580,360.593170 381.849274,358.998840 383.385345,357.255371 
	C382.345367,357.208374 381.050659,357.149841 379.755951,357.091339 
	C379.682983,356.798462 379.610016,356.505615 379.537048,356.212769 
	C380.728363,355.839508 382.536835,354.798767 382.993011,355.220581 
	C384.266632,356.398163 384.980194,358.181427 385.916168,360.148010 
z"/>
<path fill="#FCE3B0" opacity="1.000000" stroke="none" 
	d="
M592.332825,302.074097 
	C592.819336,303.214142 594.012695,304.120880 594.229675,305.220306 
	C594.598694,307.089752 594.961609,309.424835 594.133301,310.888824 
	C593.650574,311.742065 590.847168,311.282349 589.241577,310.363922 
	C590.482239,309.573639 591.722961,308.783356 592.963623,307.993042 
	C591.775085,307.123657 590.586548,306.254242 589.251831,305.277863 
	C588.934937,299.882660 589.197021,299.618408 594.383850,300.869202 
	C593.630981,301.315979 593.115784,301.621704 592.332825,302.074097 
z"/>
<path fill="#FFC25E" opacity="1.000000" stroke="none" 
	d="
M543.688965,270.025269 
	C543.155640,268.335083 542.348389,267.009247 541.935852,265.570282 
	C541.862427,265.313995 543.439331,264.163879 544.232910,264.186188 
	C545.230957,264.214172 546.969727,264.914673 547.055786,265.515778 
	C547.366394,267.685760 547.382080,269.997406 546.889832,272.111359 
	C546.769897,272.626221 544.283142,272.744995 542.892639,272.711914 
	C542.489868,272.702332 542.114624,271.531860 541.726807,270.893555 
	C542.334473,270.712708 542.942078,270.531860 543.688965,270.025269 
M544.057556,266.128510 
	C544.088867,266.443878 544.099731,266.763947 544.170715,267.070129 
	C544.183167,267.123749 544.447754,267.118927 544.595947,267.141113 
	C544.625427,266.807343 544.654968,266.473572 544.057556,266.128510 
M545.642273,270.607697 
	C545.435059,270.587555 545.227783,270.567383 545.020569,270.547241 
	C545.114075,270.661652 545.207581,270.776062 545.642273,270.607697 
z"/>
<path fill="#929292" opacity="1.000000" stroke="none" 
	d="
M335.532898,364.029358 
	C334.938751,363.152588 334.707977,362.339020 334.477203,361.525482 
	C334.989685,361.347443 335.502136,361.169434 336.014618,360.991425 
	C335.307343,360.192902 334.239471,359.488983 333.997925,358.568268 
	C333.773071,357.711212 334.237640,355.909332 334.733154,355.777191 
	C335.984253,355.443542 337.836243,355.304443 338.705597,356.006287 
	C340.820435,357.713593 338.704407,363.435852 335.532898,364.029358 
M336.104248,357.105957 
	C336.224243,357.473419 336.344238,357.840912 336.464203,358.208374 
	C336.580078,357.851715 336.695953,357.495087 336.104248,357.105957 
M336.999054,361.573517 
	C337.223694,361.580170 337.448303,361.586823 337.672943,361.593475 
	C337.564301,361.475616 337.455688,361.357758 336.999054,361.573517 
z"/>
<path fill="#FFC25E" opacity="1.000000" stroke="none" 
	d="
M564.367554,272.522095 
	C562.300415,272.854462 560.341125,272.854462 557.989319,272.854462 
	C559.885742,269.554260 561.616882,266.541748 563.348022,263.529236 
	C562.941284,263.213409 562.534607,262.897552 562.127869,262.581726 
	C560.907227,263.093353 559.686523,263.604980 558.297241,264.187256 
	C558.263672,263.643219 558.148254,262.821808 558.221252,262.804688 
	C560.057678,262.374268 561.913879,262.028473 563.766602,261.667786 
	C563.696106,263.606018 563.876709,265.599976 563.463745,267.462250 
	C563.203125,268.637177 562.055176,269.615326 561.095642,270.979767 
	C562.398438,271.446167 563.436890,271.817932 564.367554,272.522095 
z"/>
<path fill="#929292" opacity="1.000000" stroke="none" 
	d="
M392.035950,356.997314 
	C392.515167,356.191833 392.897827,355.727417 393.280457,355.263000 
	C392.865479,359.819580 392.377014,364.258240 389.367188,367.202484 
	C388.733704,362.990540 388.159515,359.172852 387.585358,355.355164 
	C387.786957,355.257416 387.988586,355.159668 388.190186,355.061920 
	C388.935638,356.550079 389.681091,358.038239 390.596893,359.866577 
	C391.113007,358.894562 391.526154,358.116455 392.035950,356.997314 
z"/>
<path fill="#FFC25E" opacity="1.000000" stroke="none" 
	d="
M571.085632,265.757324 
	C571.182922,262.527069 571.182922,262.527069 567.270996,263.305084 
	C567.184326,262.911560 567.097595,262.518066 567.010925,262.124542 
	C568.642151,261.801727 570.486633,260.881653 571.831055,261.361816 
	C572.758362,261.693024 573.107727,263.931152 573.495972,265.376007 
	C573.731812,266.253906 573.731812,267.288208 573.516235,268.174011 
	C573.131409,269.755219 572.919189,272.050446 571.865479,272.617401 
	C570.693115,273.248260 568.661682,272.282623 567.235352,270.943451 
	C568.748718,270.785553 570.262024,270.627655 571.775391,270.469788 
	C571.060242,269.385742 570.277100,268.335938 569.697021,267.183899 
	C569.600464,266.992218 570.388550,266.355072 571.085632,265.757324 
z"/>
<path fill="#929292" opacity="1.000000" stroke="none" 
	d="
M355.555847,357.267639 
	C356.498596,357.481415 357.052582,357.664215 359.023895,358.314697 
	C356.231201,358.840393 354.903381,359.090363 353.358398,359.381195 
	C353.155914,360.816467 352.955719,362.235504 352.755524,363.654510 
	C352.448578,363.669220 352.141602,363.683899 351.834656,363.698578 
	C351.834656,360.027039 351.834656,356.355499 351.834656,352.280640 
	C353.814484,352.280640 356.036377,352.280640 358.258270,352.280640 
	C358.313171,352.414795 358.368103,352.548950 358.423035,352.683105 
	C356.825684,353.023346 355.228363,353.363617 352.452057,353.954987 
	C353.589874,355.330292 354.378448,356.283447 355.555847,357.267639 
z"/>
<path fill="#FCE3B0" opacity="1.000000" stroke="none" 
	d="
M602.281372,300.664246 
	C605.889038,303.444397 605.378845,306.999268 603.524536,310.276794 
	C603.008484,311.189026 599.789185,311.804688 599.073486,311.158020 
	C595.951172,308.337006 596.495178,304.783600 598.686707,301.208618 
	C599.105103,301.095032 599.377991,301.377045 599.291870,301.775757 
	C599.546936,304.633698 599.888184,307.092957 600.229431,309.552185 
	C600.817871,309.412781 601.911682,309.295837 601.919067,309.130615 
	C602.029968,306.637878 602.001038,304.138794 601.992737,301.641235 
	C601.992249,301.487213 601.890625,301.333527 601.947632,301.051025 
	C602.059143,300.922333 602.281372,300.664246 602.281372,300.664246 
z"/>
<path fill="#929292" opacity="1.000000" stroke="none" 
	d="
M501.983948,356.982361 
	C501.129608,360.755219 501.191101,364.999237 497.971588,367.017059 
	C497.389099,363.046814 496.843414,359.327637 496.297699,355.608429 
	C496.470490,355.487274 496.643250,355.366119 496.816010,355.244965 
	C497.580109,356.631866 498.344208,358.018738 499.150299,359.481812 
	C499.986969,358.792358 500.805206,358.118073 501.808044,357.198578 
	C501.992676,356.953400 501.983948,356.982361 501.983948,356.982361 
z"/>
<path fill="#FCE3B0" opacity="1.000000" stroke="none" 
	d="
M541.783447,310.461853 
	C542.771423,310.003784 543.799438,309.823792 544.280762,309.739532 
	C543.622131,307.857330 542.940552,305.909454 542.258911,303.961578 
	C543.896179,303.834717 545.533508,303.707855 547.170776,303.580994 
	C547.183105,304.100525 547.195435,304.620056 547.207764,305.139587 
	C546.202454,305.203979 545.197144,305.268372 544.233215,305.330109 
	C542.770752,311.175079 542.770752,311.175079 541.783447,310.461853 
z"/>
<path fill="#929292" opacity="1.000000" stroke="none" 
	d="
M318.126587,360.664124 
	C319.540344,361.927765 320.927826,362.748047 322.657806,363.770844 
	C320.600830,363.770844 318.786194,363.770844 316.618256,363.770844 
	C316.618256,359.975037 316.618256,356.210144 316.618256,352.445251 
	C317.112244,352.419464 317.606262,352.393677 318.100250,352.367859 
	C318.100250,354.985504 318.100250,357.603149 318.126587,360.664124 
z"/>
<path fill="#FFC25E" opacity="1.000000" stroke="none" 
	d="
M602.683594,272.605530 
	C598.881836,274.022552 597.268433,271.923828 597.171875,268.643646 
	C597.072632,265.272491 595.946899,260.785797 602.086365,261.440552 
	C602.081604,261.941315 601.939392,262.078339 601.426636,262.238892 
	C597.782776,265.600830 598.057434,269.604340 601.945068,271.917084 
	C602.353027,272.302032 602.518311,272.453766 602.683594,272.605530 
z"/>
<path fill="#FFC25E" opacity="1.000000" stroke="none" 
	d="
M593.683594,272.605530 
	C589.881958,274.022461 588.268250,271.923798 588.171387,268.643677 
	C588.071960,265.272217 586.947205,260.785858 593.086365,261.440552 
	C593.081604,261.941315 592.939392,262.078339 592.426636,262.238892 
	C588.782776,265.600861 589.057434,269.604340 592.945068,271.917084 
	C593.353027,272.302032 593.518311,272.453766 593.683594,272.605530 
z"/>
<path fill="#FFC25E" opacity="1.000000" stroke="none" 
	d="
M593.442383,261.604126 
	C596.530396,264.845062 596.186279,268.454407 593.953613,272.377014 
	C593.518311,272.453766 593.353027,272.302032 593.110718,271.578217 
	C592.954834,268.075897 592.875977,265.145630 592.797119,262.215363 
	C592.939392,262.078339 593.081604,261.941315 593.442383,261.604126 
z"/>
<path fill="#FFC25E" opacity="1.000000" stroke="none" 
	d="
M602.442383,261.604126 
	C605.530396,264.845062 605.186279,268.454407 602.953613,272.377014 
	C602.518311,272.453766 602.353027,272.302032 602.110718,271.578217 
	C601.954895,268.075897 601.876038,265.145630 601.797180,262.215363 
	C601.939392,262.078339 602.081604,261.941315 602.442383,261.604126 
z"/>
<path fill="#FCE3B0" opacity="1.000000" stroke="none" 
	d="
M598.969116,300.953613 
	C599.803040,300.654053 600.772949,300.495941 602.012146,300.501038 
	C602.281372,300.664246 602.059143,300.922333 601.635498,301.036865 
	C600.600586,301.226593 599.989319,301.301819 599.377991,301.377045 
	C599.377991,301.377045 599.105103,301.095032 598.969116,300.953613 
z"/>
<path fill="#929292" opacity="1.000000" stroke="none" 
	d="
M501.998291,356.933044 
	C502.003876,356.912689 502.259888,356.883972 502.259888,356.883972 
	C502.259888,356.883972 501.940521,356.791016 501.962219,356.886688 
	C501.983948,356.982361 501.992676,356.953400 501.998291,356.933044 
z"/>
<path fill="#FFC649" opacity="1.000000" stroke="none" 
	d="
M233.954132,286.192261 
	C233.719864,290.460815 233.805649,294.319122 233.166840,298.053436 
	C232.081924,304.395477 228.054916,307.655304 222.264038,307.489136 
	C216.701584,307.329498 212.658020,304.014435 212.013290,297.915436 
	C211.426102,292.360992 211.404663,286.659607 211.927750,281.097656 
	C212.537277,274.616547 216.520523,271.125183 222.166794,270.970551 
	C228.148300,270.806732 232.004593,274.186401 233.284958,280.794525 
	C233.599960,282.420227 233.732086,284.081360 233.954132,286.192261 
M222.501160,273.683319 
	C217.904312,273.835785 215.208908,276.493225 214.917969,280.772430 
	C214.525604,286.543060 214.536819,292.394165 215.032822,298.154083 
	C215.382614,302.216309 218.243637,304.787689 222.489319,304.855072 
	C226.758453,304.922852 229.733047,302.395782 230.065430,298.339752 
	C230.563889,292.257050 230.515427,286.075958 230.042587,279.987732 
	C229.765961,276.426025 227.256409,274.016693 222.501160,273.683319 
z"/>
<path fill="#FFC649" opacity="1.000000" stroke="none" 
	d="
M200.521942,276.504822 
	C194.574890,271.719391 192.161530,272.591248 184.464798,282.647705 
	C184.464798,280.248047 184.089752,278.707245 184.530273,277.452881 
	C186.352158,272.265076 193.226379,269.568146 198.756409,271.680908 
	C204.001587,273.684845 206.543015,279.565308 203.695251,284.870087 
	C201.523636,288.915344 198.319244,292.422852 195.447922,296.070068 
	C193.513443,298.527283 191.358749,300.811157 189.485779,304.716858 
	C195.070084,304.716858 200.654373,304.716858 206.238678,304.716858 
	C206.203629,305.325195 206.168594,305.933563 206.133545,306.541901 
	C199.000275,306.541901 191.867004,306.541901 183.875076,306.541901 
	C184.971100,304.784088 185.706070,303.235107 186.771454,301.962769 
	C190.724396,297.241943 194.897888,292.702606 198.768066,287.916840 
	C201.380936,284.685791 202.915070,281.032104 200.521942,276.504822 
z"/>
<path fill="#DCDCDC" opacity="1.000000" stroke="none" 
	d="
M186.666397,233.935532 
	C184.897751,233.132645 182.473480,232.393219 182.376434,231.421387 
	C182.090866,228.561890 182.516632,225.553146 183.267319,222.765305 
	C183.363419,222.408401 187.481537,222.345337 188.942657,223.327255 
	C191.222977,224.859665 189.671555,232.156921 186.666397,233.935532 
z"/>
<path fill="#DCDCDC" opacity="1.000000" stroke="none" 
	d="
M238.789612,234.166107 
	C237.534317,235.683762 236.350754,236.813766 235.167191,237.943787 
	C234.830994,237.635559 234.494781,237.327316 234.158569,237.019089 
	C234.702042,236.356339 235.245499,235.693588 235.874924,234.926010 
	C234.584534,234.031036 232.579712,233.376099 232.161926,232.170975 
	C231.596039,230.538620 231.737015,228.204117 232.557587,226.710938 
	C233.093658,225.735474 235.610870,225.049637 236.799332,225.472992 
	C237.836685,225.842529 238.537186,227.879242 238.870377,229.300385 
	C239.201950,230.714630 238.890717,232.279572 238.789612,234.166107 
z"/>
<path fill="#DCDCDC" opacity="1.000000" stroke="none" 
	d="
M206.393799,233.399887 
	C203.369675,234.343872 201.267258,233.618164 201.158890,230.650284 
	C201.101517,229.078644 201.944229,227.225327 202.960831,225.968506 
	C203.467957,225.341522 205.867676,225.254044 206.374359,225.831833 
	C207.323608,226.914368 207.791763,228.633636 207.929001,230.136551 
	C208.017899,231.110245 207.164688,232.169952 206.393799,233.399887 
z"/>
<path fill="#929292" opacity="1.000000" stroke="none" 
	d="
M187.667206,363.966400 
	C185.506287,363.576385 183.739487,363.088531 181.972687,362.600677 
	C182.154953,362.103149 182.337219,361.605621 182.519485,361.108093 
	C183.031357,361.343811 183.544357,361.778656 184.054916,361.775787 
	C185.303970,361.768829 186.551910,361.559692 187.800293,361.431915 
	C187.055710,360.524872 186.307327,359.620972 185.567444,358.710083 
	C184.425552,357.304291 183.123642,355.979980 182.304642,354.405273 
	C182.158203,354.123749 184.043442,352.078003 184.950195,352.107056 
	C186.710190,352.163452 188.441498,353.114655 190.184692,353.695099 
	C190.038254,354.125763 189.891815,354.556427 189.745377,354.987091 
	C189.310776,354.987091 188.869827,355.034943 188.442749,354.978271 
	C187.075226,354.796661 185.712860,354.576294 184.348511,354.370911 
	C185.172134,355.371979 185.800491,356.729187 186.855759,357.307861 
	C190.109787,359.092255 191.814301,360.906921 187.667206,363.966400 
z"/>
<path fill="#DCDCDC" opacity="1.000000" stroke="none" 
	d="
M196.765991,225.363327 
	C197.507812,225.796982 198.053741,226.035110 198.226151,226.434479 
	C199.397232,229.147278 200.046463,232.100967 196.739426,233.494873 
	C195.698898,233.933426 192.711914,232.451263 192.361237,231.311310 
	C191.402252,228.193802 192.237198,225.387146 196.765991,225.363327 
z"/>
<path fill="#929292" opacity="1.000000" stroke="none" 
	d="
M214.171112,362.766449 
	C214.581711,363.227478 214.624405,363.637115 214.667114,364.046722 
	C213.118073,362.747375 210.630447,361.648041 210.298370,360.089447 
	C209.998993,358.684326 212.060211,356.776245 213.080322,355.089996 
	C214.654694,356.120483 216.229050,357.150970 217.803421,358.181427 
	C217.555222,358.659180 217.307007,359.136963 217.058792,359.614716 
	C215.521347,359.894379 213.983902,360.174072 211.974991,360.539490 
	C212.691971,361.392670 213.247589,362.053864 214.171112,362.766449 
z"/>
<path fill="#DCDCDC" opacity="1.000000" stroke="none" 
	d="
M214.823502,232.177795 
	C213.570801,232.177795 212.318115,232.177795 210.557556,232.177795 
	C210.557556,229.369919 210.557556,225.786209 210.557556,222.202484 
	C210.858353,222.173187 211.159134,222.143875 211.459930,222.114563 
	C211.775772,223.608597 212.091614,225.102646 212.490616,226.990021 
	C213.636185,226.521393 214.717850,226.078888 215.940109,225.578873 
	C215.680191,227.533096 215.448425,229.275513 215.132446,231.481659 
	C215.048233,231.945404 214.823502,232.177795 214.823502,232.177795 
z"/>
<path fill="#DCDCDC" opacity="1.000000" stroke="none" 
	d="
M229.087219,230.973907 
	C229.044159,231.450119 229.070740,231.670578 228.974350,231.763474 
	C228.797180,231.934235 228.547623,232.029922 228.328232,232.156921 
	C227.701965,230.494293 227.075699,228.831680 226.449448,227.169052 
	C225.967667,227.191605 225.485886,227.214157 225.004120,227.236710 
	C224.463455,229.115005 223.922806,230.993301 223.382156,232.871597 
	C222.998489,232.872955 222.614822,232.874313 222.231155,232.875671 
	C222.341141,230.648788 222.125320,228.323868 222.749023,226.251602 
	C222.950089,225.583633 226.155212,224.888062 226.607224,225.406723 
	C227.833527,226.813889 228.320999,228.864899 229.087219,230.973907 
z"/>
<path fill="#DCDCDC" opacity="1.000000" stroke="none" 
	d="
M242.864258,229.171509 
	C242.513565,228.153305 242.162872,227.135086 241.812195,226.116882 
	C243.272659,225.938980 244.733124,225.761063 246.193573,225.583160 
	C246.242645,225.974243 246.291702,226.365326 246.340759,226.756424 
	C245.315369,227.284210 244.289963,227.811996 243.127197,228.680557 
	C242.989838,229.021347 242.864258,229.171509 242.864258,229.171509 
z"/>
<path fill="#DCDCDC" opacity="1.000000" stroke="none" 
	d="
M243.053467,228.946960 
	C245.135361,229.472626 248.060394,229.491898 245.349579,232.956665 
	C245.003250,233.014328 244.924698,232.911499 244.924698,232.911499 
	C244.364685,231.828583 243.804672,230.745651 243.054474,229.417114 
	C242.864258,229.171509 242.989838,229.021347 243.053467,228.946960 
z"/>
<path fill="#DCDCDC" opacity="1.000000" stroke="none" 
	d="
M245.041275,233.066666 
	C243.888382,233.245972 242.697464,233.372955 241.506546,233.499924 
	C241.511078,233.062576 241.515610,232.625244 241.520157,232.187897 
	C242.465210,232.400452 243.410278,232.613022 244.640015,232.868530 
	C244.924698,232.911499 245.003250,233.014328 245.041275,233.066666 
z"/>
<path fill="#DCDCDC" opacity="1.000000" stroke="none" 
	d="
M215.159576,231.828232 
	C215.564835,232.196579 215.858734,232.682114 216.152649,233.167633 
	C215.776459,232.973267 215.400253,232.778900 214.923767,232.381165 
	C214.823502,232.177795 215.048233,231.945404 215.159576,231.828232 
z"/>
<path fill="#FFFFFF" opacity="1.000000" stroke="none" 
	d="
M544.370972,266.134155 
	C544.654968,266.473572 544.625427,266.807343 544.595947,267.141113 
	C544.447754,267.118927 544.183167,267.123749 544.170715,267.070129 
	C544.099731,266.763947 544.088867,266.443878 544.370972,266.134155 
z"/>
<path fill="#FFFFFF" opacity="1.000000" stroke="none" 
	d="
M545.471680,270.749084 
	C545.207581,270.776062 545.114075,270.661652 545.020569,270.547241 
	C545.227783,270.567383 545.435059,270.587555 545.471680,270.749084 
z"/>
<path fill="#FFFFFF" opacity="1.000000" stroke="none" 
	d="
M336.458008,357.122192 
	C336.695953,357.495087 336.580078,357.851715 336.464203,358.208374 
	C336.344238,357.840912 336.224243,357.473419 336.458008,357.122192 
z"/>
<path fill="#FFFFFF" opacity="1.000000" stroke="none" 
	d="
M337.173035,361.406708 
	C337.455688,361.357758 337.564301,361.475616 337.672943,361.593475 
	C337.448303,361.586823 337.223694,361.580170 337.173035,361.406708 
z"/>
<path fill="#FFFDFA" opacity="1.000000" stroke="none" 
	d="
M599.291870,301.775757 
	C599.989319,301.301819 600.600586,301.226593 601.523987,301.165527 
	C601.890625,301.333527 601.992249,301.487213 601.992737,301.641235 
	C602.001038,304.138794 602.029968,306.637878 601.919067,309.130615 
	C601.911682,309.295837 600.817871,309.412781 600.229431,309.552185 
	C599.888184,307.092957 599.546936,304.633698 599.291870,301.775757 
z"/>
<path fill="#F8F8F8" opacity="1.000000" stroke="none" 
	d="
M601.426636,262.238892 
	C601.876038,265.145630 601.954895,268.075897 601.868103,271.345032 
	C598.057434,269.604340 597.782776,265.600830 601.426636,262.238892 
z"/>
<path fill="#F8F8F8" opacity="1.000000" stroke="none" 
	d="
M592.426636,262.238892 
	C592.875977,265.145630 592.954834,268.075897 592.868042,271.345032 
	C589.057434,269.604340 588.782776,265.600861 592.426636,262.238892 
z"/>
<path fill="#FFFDFA" opacity="1.000000" stroke="none" 
	d="
M222.913071,273.721985 
	C227.256409,274.016693 229.765961,276.426025 230.042587,279.987732 
	C230.515427,286.075958 230.563889,292.257050 230.065430,298.339752 
	C229.733047,302.395782 226.758453,304.922852 222.489319,304.855072 
	C218.243637,304.787689 215.382614,302.216309 215.032822,298.154083 
	C214.536819,292.394165 214.525604,286.543060 214.917969,280.772430 
	C215.208908,276.493225 217.904312,273.835785 222.913071,273.721985 
z"/>
</svg>